<svg id="Livello_1" data-name="Livello 1" xmlns="http://www.w3.org/2000/svg" viewBox="0 0 476.48 107.95"><defs><style>.cls-1{fill:#fff;}.cls-2{fill:#1d1d1b;}</style></defs><path d="M249.59,9.79c1.42.06,2.86.1,4.3.18.58,0,1.16.14,1.73.22.74.09,1.47.18,2.2.29s1.46.24,2.19.39c1,.21,1.94.44,2.9.69a42.23,42.23,0,0,1,4.78,1.54c1.34.53,2.67,1.1,4,1.68A39.85,39.85,0,0,1,276,17.06a42.12,42.12,0,0,1,4.16,2.75c.68.53,1.41,1,2.07,1.57,1.12.94,2.21,1.93,3.31,2.9a37.16,37.16,0,0,1,3.27,3.37c.92,1,1.76,2.12,2.61,3.21.61.79,1.19,1.6,1.73,2.44.74,1.13,1.45,2.28,2.13,3.44A43.75,43.75,0,0,1,297.93,42c.55,1.29,1.05,2.61,1.51,3.93.4,1.14.74,2.3,1.07,3.46.26.95.47,1.93.69,2.89.17.75.33,1.5.46,2.26s.19,1.38.28,2.06c.05.34.11.68.14,1,.12,1.34.29,2.67.33,4,0,1.61,0,3.22-.05,4.83,0,.89-.1,1.77-.17,2.65,0,.51-.11,1-.17,1.53s-.11.85-.18,1.27c-.12.7-.23,1.4-.36,2.1s-.25,1.25-.4,1.87c-.2.9-.4,1.8-.65,2.69s-.62,2-.95,3a51.91,51.91,0,0,1-3.13,7.37,54,54,0,0,1-2.82,4.81,52.57,52.57,0,0,1-3.95,5.31,47.56,47.56,0,0,1-5.74,5.79c-1.22,1-2.45,2-3.73,3A36.43,36.43,0,0,1,276.8,110c-1.38.83-2.8,1.62-4.24,2.36a45.24,45.24,0,0,1-5.16,2.21c-1.49.54-3,1-4.54,1.42-1.1.28-2.2.56-3.32.75-.89.15-1.78.36-2.68.48s-1.89.21-2.84.28-2.17.2-3.25.22-2.42,0-3.63-.06c-.19,0-.38,0-.56,0-.91-.07-1.82-.14-2.73-.23s-1.61-.17-2.41-.29c-.6-.09-1.19-.24-1.79-.36s-1.26-.24-1.88-.38c-.91-.22-1.82-.45-2.71-.71s-1.75-.52-2.6-.83c-1.25-.46-2.49-1-3.72-1.46-.82-.34-1.63-.73-2.43-1.13s-1.85-.94-2.74-1.47c-1.22-.73-2.41-1.5-3.6-2.28-.61-.39-1.18-.84-1.76-1.27a46,46,0,0,1-3.66-3,51.28,51.28,0,0,1-4.16-4.18,49.55,49.55,0,0,1-3.15-3.92,54.13,54.13,0,0,1-3.4-5.21,46.11,46.11,0,0,1-2.44-4.87c-.37-.89-.77-1.77-1.12-2.68s-.68-1.92-1-2.89c-.26-.78-.51-1.56-.73-2.35s-.35-1.41-.5-2.11c-.22-1-.44-2-.61-3s-.27-2-.4-3c0-.44-.09-.88-.14-1.32a49,49,0,0,1-.22-6.41c0-1.11.11-2.22.2-3.33.08-.91.17-1.82.3-2.72s.28-1.77.45-2.65c.12-.65.24-1.31.4-2,.3-1.21.6-2.42.94-3.61.27-1,.58-1.94.94-2.88.54-1.41,1.11-2.82,1.74-4.2s1.32-2.77,2.07-4.1,1.59-2.6,2.41-3.88c.47-.71,1-1.42,1.48-2.09.87-1.11,1.75-2.21,2.67-3.27a53.13,53.13,0,0,1,4.08-4.14,45.92,45.92,0,0,1,4.06-3.32c1.1-.79,2.21-1.57,3.34-2.3a47.15,47.15,0,0,1,4.15-2.36c1.65-.83,3.33-1.58,5.06-2.25,1.44-.55,2.91-1,4.39-1.47,1.13-.32,2.29-.56,3.43-.82.75-.17,1.5-.34,2.26-.47s1.47-.2,2.2-.29L245,10l.25,0ZM249.46,113h0c.2,0,.4,0,.6,0,1.07,0,2.14-.09,3.21-.16.58,0,1.16-.12,1.74-.19.75-.09,1.5-.16,2.24-.29,1-.17,1.95-.38,2.92-.6s1.85-.44,2.76-.72c1.17-.37,2.33-.79,3.5-1.19a38.19,38.19,0,0,0,4.68-2.06,47.26,47.26,0,0,0,5.34-3.18,51.61,51.61,0,0,0,5.56-4.45,48.56,48.56,0,0,0,9.23-11.67,50.79,50.79,0,0,0,2.42-4.84c.54-1.25,1-2.52,1.46-3.81a50.38,50.38,0,0,0,1.45-5.11c.28-1.2.44-2.43.65-3.65.06-.32.08-.65.12-1,.08-.57.18-1.13.23-1.69.07-.93.09-1.85.16-2.78a48.28,48.28,0,0,0-.18-6.8c0-.37-.06-.74-.11-1.1-.11-.73-.24-1.46-.36-2.19s-.23-1.54-.4-2.3c-.23-1.05-.5-2.1-.8-3.13s-.66-2.17-1.05-3.24c-.46-1.28-.95-2.55-1.5-3.79a42.83,42.83,0,0,0-3-5.63c-.72-1.14-1.46-2.28-2.26-3.36s-1.75-2.17-2.64-3.24a39.62,39.62,0,0,0-4.33-4.36,48.28,48.28,0,0,0-4.89-3.78,49.52,49.52,0,0,0-5.25-3.1,52.59,52.59,0,0,0-5-2.17c-1.45-.55-2.92-1-4.41-1.4-1.12-.31-2.26-.55-3.4-.76s-2.25-.37-3.38-.5-2.13-.21-3.2-.25a42.28,42.28,0,0,0-6.75.22c-.43.05-.85.08-1.28.14-.71.09-1.43.18-2.15.3s-1.44.3-2.16.46-1.58.35-2.36.57c-1.33.37-2.65.8-4,1.28a48.83,48.83,0,0,0-4.57,2,47,47,0,0,0-6.15,3.66c-1.07.77-2.14,1.56-3.15,2.41s-2,1.77-3,2.69a40.1,40.1,0,0,0-4,4.44c-.88,1.15-1.76,2.31-2.56,3.51a37.09,37.09,0,0,0-2.69,4.6c-.62,1.27-1.24,2.55-1.79,3.85a41.15,41.15,0,0,0-1.71,4.86c-.23.82-.47,1.63-.67,2.46s-.39,1.81-.57,2.71c-.12.57-.23,1.15-.3,1.72-.12.88-.21,1.76-.29,2.63s-.18,1.74-.21,2.6a54.36,54.36,0,0,0,.15,6.38c.07.82.17,1.64.27,2.46.09.63.21,1.26.32,1.89s.25,1.49.41,2.22.39,1.6.61,2.39.45,1.7.74,2.53a44.11,44.11,0,0,0,1.8,4.59c.61,1.27,1.21,2.55,1.88,3.79s1.28,2.17,2,3.24A41,41,0,0,0,213,95.91a42.39,42.39,0,0,0,4.42,4.57c.87.77,1.74,1.55,2.66,2.28,1.22,1,2.5,1.86,3.82,2.71a42.1,42.1,0,0,0,3.91,2.25c1.24.63,2.51,1.21,3.78,1.75,1,.42,2,.77,3,1.12.64.23,1.3.41,1.95.59.9.25,1.8.52,2.72.72s2.06.39,3.1.54c1.24.18,2.48.36,3.73.47S248.33,113,249.46,113Z" transform="translate(-6.78 -9.79)"/><path d="M266.29,48.17l.54,1.43c.47,1.27.93,2.55,1.28,3.87.23.88.5,1.75.71,2.63.17.7.27,1.42.4,2.13s.25,1.34.35,2c.07.46.1.93.14,1.4.07.68.13,1.36.19,2,0,.25.06.49.07.73,0,1.54,0,3.08,0,4.62,0,.82-.13,1.63-.2,2.43-.05.53-.09,1.06-.17,1.58-.1.74-.22,1.49-.35,2.23s-.25,1.49-.4,2.22c-.11.55-.24,1.08-.39,1.62-.4,1.4-.78,2.81-1.24,4.2a50.06,50.06,0,0,1-2.32,5.75c-.82,1.73-1.73,3.4-2.71,5a44.87,44.87,0,0,1-3.6,5.08l-.18.24a1.19,1.19,0,0,0,.31,0,38.15,38.15,0,0,0,7.53-2.82,27.35,27.35,0,0,0,4.35-2.73,35.85,35.85,0,0,0,4.48-4,39.73,39.73,0,0,0,8.47-13.48A37,37,0,0,0,285,71.62c.2-.9.42-1.79.59-2.7s.26-1.69.4-2.53c0-.2.11-.41.18-.69L287,67a51.51,51.51,0,0,1,2.67,4.75,50.49,50.49,0,0,1,2.35,5.39c.3.82.64,1.61,1,2.41a.6.6,0,0,1,0,.49c-.36.91-.69,1.84-1.07,2.74s-.87,2-1.34,2.94a32,32,0,0,1-2.39,4.18c-.67,1-1.34,2-2,2.94-.48.64-1,1.24-1.52,1.85a39.1,39.1,0,0,1-4,4.11c-1,.87-2,1.7-3.07,2.52a39.28,39.28,0,0,1-4.51,3.06,46.39,46.39,0,0,1-5.52,2.84,44.41,44.41,0,0,1-4.71,1.75,29.21,29.21,0,0,1-3.8.92c-.6.1-1.2.25-1.79.37-.25,0-.51.08-.76.1l-2.72.29-2,.16a29.45,29.45,0,0,1-4.88,0c-1.16-.09-2.33-.16-3.49-.29-.85-.09-1.68-.25-2.61-.4a1.82,1.82,0,0,1,.26-.25c2-1.13,3.91-2.36,5.79-3.68a49.67,49.67,0,0,0,5.36-4.35,45.38,45.38,0,0,0,3.46-3.61,42.78,42.78,0,0,0,2.91-3.79c.83-1.2,1.59-2.46,2.31-3.72s1.38-2.55,2-3.84a31.79,31.79,0,0,0,1.76-4.42,1,1,0,0,0,0-.24l-1.08.29L262,83q-1,.24-2,.45c-.78.16-1.56.31-2.35.45s-1.45.24-2.19.35c-.45.07-.9.12-1.36.16a55.9,55.9,0,0,1-6.07.25c-1.25,0-2.51-.06-3.76-.14-.91-.06-1.81-.2-2.72-.33-1.08-.16-2.16-.33-3.24-.55-.81-.16-1.62-.39-2.43-.6s-1.59-.41-2.37-.66a42.4,42.4,0,0,1-4.89-1.86c-1.21-.56-2.42-1.11-3.6-1.74a41.1,41.1,0,0,1-4.45-2.69c-1-.7-2-1.38-2.93-2.13s-2-1.75-3-2.63l-.45-.4c0,.11,0,.18,0,.23.28,1.15.54,2.3.87,3.43s.72,2.24,1.11,3.35a30.39,30.39,0,0,0,1.83,4,32.66,32.66,0,0,0,2.44,3.9,37.63,37.63,0,0,0,9.07,8.84A36,36,0,0,0,237,98.58a34.91,34.91,0,0,0,3.71,1.21c.88.23,1.78.39,2.66.57.66.14,1.32.25,2,.36.36.06.71.1,1.06.13.63.06,1.26.09,1.88.15a2.18,2.18,0,0,1,.72.18c-.23.16-.45.33-.69.48-1.24.77-2.48,1.55-3.74,2.3a52.57,52.57,0,0,1-4.7,2.47c-1.53.72-3.08,1.4-4.66,2a.82.82,0,0,1-.65,0c-1.17-.49-2.35-.94-3.5-1.46s-2.28-1.07-3.4-1.66a45.24,45.24,0,0,1-4.51-2.75,43.67,43.67,0,0,1-3.58-2.76,45,45,0,0,1-5.23-5.28,48.93,48.93,0,0,1-3.09-4.07,40.49,40.49,0,0,1-3.48-6.15,48.81,48.81,0,0,1-2.26-6,38.51,38.51,0,0,1-1-3.83c-.2-1-.42-1.94-.58-2.92-.13-.75-.19-1.52-.28-2.28-.06-.47-.12-.93-.16-1.4a41.51,41.51,0,0,1-.12-6.5c.07-.91.09-1.83.16-2.74,0-.52.12-1,.19-1.56l.3-2.16c.05-.34.13-.69.21-1.12a3.08,3.08,0,0,1,.24.3c.76,1.37,1.61,2.68,2.49,4a68.42,68.42,0,0,0,4.17,5.57,57.18,57.18,0,0,0,5.47,5.75c1,.92,2.1,1.79,3.17,2.67a40.79,40.79,0,0,0,4,2.85,41.67,41.67,0,0,0,5.08,2.77c1.14.51,2.3,1,3.45,1.45a3.1,3.1,0,0,0,.51.13c-.14-.36-.25-.67-.37-1-.44-1.25-.9-2.51-1.31-3.77-.28-.87-.51-1.75-.73-2.63-.16-.65-.27-1.3-.4-2s-.24-1.28-.35-1.93c-.06-.33-.11-.67-.15-1-.08-.78-.2-1.56-.24-2.34a50.81,50.81,0,0,1-.13-5.09c.07-1.25.13-2.51.24-3.76.07-.85.22-1.69.35-2.54s.23-1.66.4-2.48c.21-1,.45-2,.72-3.07s.55-2,.89-3.06c.47-1.39,1-2.79,1.53-4.15s1.29-2.88,2-4.27,1.53-2.7,2.35-4c.61-1,1.31-1.93,2-2.88.33-.46.7-.89,1-1.34l.25-.35A39.54,39.54,0,0,0,212.89,62h-.13c-.34-.55-.71-1.08-1-1.64q-1.43-2.55-2.61-5.21c-.48-1.09-1-2.17-1.46-3.26-.57-1.35-1.11-2.7-1.65-4.06a.72.72,0,0,1,0-.46c.27-.72.55-1.43.86-2.13.45-1,.9-2,1.4-3s1.16-2.18,1.79-3.24a42.85,42.85,0,0,1,3.28-4.73A48.12,48.12,0,0,1,217.2,30c1-1,2.13-2,3.25-3a45.65,45.65,0,0,1,3.72-2.79,44,44,0,0,1,4.55-2.67,38.73,38.73,0,0,1,5.05-2.16c1.31-.44,2.64-.88,4-1.24,1-.29,2.11-.45,3.16-.68a27.85,27.85,0,0,1,3.5-.51c1.07-.09,2.13-.17,3.2-.24.77-.05,1.54-.14,2.31-.12,1.08,0,2.16.12,3.24.2.63,0,1.25.11,1.87.18.47.05.93.14,1.4.2l1.14.16a7,7,0,0,1,1.11.25c-.33.17-.66.36-1,.52a36.19,36.19,0,0,0-4.87,2.71,43.87,43.87,0,0,0-3.72,2.78,41,41,0,0,0-5.2,5.18c-.8,1-1.59,1.93-2.34,2.93a52.4,52.4,0,0,0-3.16,4.81,57.19,57.19,0,0,0-2.95,5.58c-.39.88-.69,1.8-1,2.7a1.16,1.16,0,0,0,0,.34l2.23-.54c.71-.16,1.44-.31,2.16-.45l2-.37c.28,0,.56-.08.84-.11l2.72-.29c.66-.06,1.31-.13,2-.15,1.35-.05,2.69-.11,4-.1s2.65,0,4,.13c1.06.07,2.12.23,3.18.36l.89.1c.68.09,1.36.17,2,.29.91.18,1.83.38,2.74.6s1.79.42,2.68.68,1.82.56,2.71.89c1.16.44,2.32.91,3.46,1.41a43.39,43.39,0,0,1,6.1,3.32,34.81,34.81,0,0,1,3.87,2.86c.83.7,1.61,1.44,2.42,2.16l.51.44a1.5,1.5,0,0,0,0-.37c-.38-1.35-.72-2.71-1.17-4a38.67,38.67,0,0,0-3.13-7,35.6,35.6,0,0,0-2.68-4.06c-.76-1-1.61-1.91-2.45-2.85a33.93,33.93,0,0,0-3.77-3.52A36.9,36.9,0,0,0,262.34,29a30.47,30.47,0,0,0-3.7-1.27c-.77-.19-1.53-.43-2.3-.6s-1.6-.28-2.39-.41q-.47-.09-.93-.15l-2.92-.31a1.16,1.16,0,0,1,.18-.2c1.29-.77,2.57-1.57,3.88-2.31q2.35-1.34,4.76-2.58c1.15-.6,2.34-1.14,3.52-1.7.4-.18.82-.32,1.24-.47a.59.59,0,0,1,.37,0c1,.35,2,.66,2.91,1.08,1.36.6,2.7,1.26,4,1.93a41.24,41.24,0,0,1,4.24,2.53,42,42,0,0,1,3.49,2.59c.93.77,1.8,1.61,2.69,2.44a35.65,35.65,0,0,1,3.8,4.16c1,1.22,1.83,2.5,2.73,3.76a29.13,29.13,0,0,1,2.24,3.72c.57,1.11,1.12,2.23,1.61,3.38.56,1.32,1.06,2.66,1.54,4,.3.85.52,1.73.75,2.61s.45,1.7.63,2.56.26,1.51.39,2.27.23,1.46.33,2.19c.07.55.12,1.11.16,1.66.05.7.11,1.4.11,2.09,0,1.49,0,3,0,4.46,0,.78-.13,1.56-.2,2.34-.05.53-.1,1-.16,1.57s-.13.85-.2,1.27-.09.7-.15,1.06-.12.78-.19,1.17c0,.07-.07.14-.13.29-.24-.48-.45-.89-.65-1.31a28.8,28.8,0,0,0-2.09-3.66c-.79-1.21-1.6-2.42-2.45-3.6-.68-.94-1.4-1.86-2.15-2.76s-1.6-1.89-2.45-2.79a42.31,42.31,0,0,0-4.43-4.14,43.83,43.83,0,0,0-4.32-3.12,47.49,47.49,0,0,0-4.58-2.53c-1.61-.77-3.26-1.4-4.92-2A1.73,1.73,0,0,0,266.29,48.17ZM235,63.71a14.56,14.56,0,0,0,.7,4.55,14.67,14.67,0,0,0,6.86,8.49A13,13,0,0,0,245,77.84a19.48,19.48,0,0,0,2.4.57,8.19,8.19,0,0,0,1.4.13c.86,0,1.72,0,2.57-.07a12.12,12.12,0,0,0,3-.72,14.19,14.19,0,0,0,4.81-2.87,14.91,14.91,0,0,0,3.48-4.69A15.49,15.49,0,0,0,264.09,64,11.57,11.57,0,0,0,264,62.3a19.72,19.72,0,0,0-.41-2.44,15,15,0,0,0-5.27-8,14.29,14.29,0,0,0-4.39-2.3A13.49,13.49,0,0,0,251,49a14.28,14.28,0,0,0-5,.36,14.78,14.78,0,0,0-2.95,1.11,14.61,14.61,0,0,0-5,4.08,15,15,0,0,0-2,3.54,15.82,15.82,0,0,0-1,3.44C235,62.23,235,63,235,63.71Z" transform="translate(-6.78 -9.79)"/><path class="cls-1" d="M235,63.71c.06-.74.06-1.48.18-2.21a15.82,15.82,0,0,1,1-3.44,15,15,0,0,1,2-3.54,14.61,14.61,0,0,1,5-4.08A14.78,14.78,0,0,1,246,49.33a14.28,14.28,0,0,1,5-.36,13.49,13.49,0,0,1,2.87.62,14.29,14.29,0,0,1,4.39,2.3,15,15,0,0,1,5.27,8A19.72,19.72,0,0,1,264,62.3a11.57,11.57,0,0,1,.11,1.66,15.49,15.49,0,0,1-1.46,6.23,14.91,14.91,0,0,1-3.48,4.69,14.19,14.19,0,0,1-4.81,2.87,12.12,12.12,0,0,1-3,.72c-.85.08-1.71.07-2.57.07a8.19,8.19,0,0,1-1.4-.13,19.48,19.48,0,0,1-2.4-.57,13,13,0,0,1-2.44-1.09,15,15,0,0,1-7.56-13Zm14.61,12.55a9.27,9.27,0,0,0,2.77-.29,12.27,12.27,0,0,0,7-4.68A12.5,12.5,0,0,0,261,68.15a11.88,11.88,0,0,0,.7-2.85,13.42,13.42,0,0,0-.08-3.58,13.08,13.08,0,0,0-1-3.36,12.27,12.27,0,0,0-4-4.82,11.57,11.57,0,0,0-2.32-1.32,12,12,0,0,0-4.13-1,11.83,11.83,0,0,0-4.09.48,11.46,11.46,0,0,0-3.69,1.82,12.45,12.45,0,0,0-4.94,8,10.49,10.49,0,0,0-.22,2.16c0,.75.14,1.5.22,2.25a9.11,9.11,0,0,0,.53,2.1,12.83,12.83,0,0,0,1.88,3.47,12.08,12.08,0,0,0,3,2.74,11.84,11.84,0,0,0,4,1.72A9.13,9.13,0,0,0,249.57,76.26Z" transform="translate(-6.78 -9.79)"/><path d="M249.57,76.26A9.13,9.13,0,0,1,246.8,76a11.84,11.84,0,0,1-4-1.72,12.08,12.08,0,0,1-3-2.74A12.83,12.83,0,0,1,238,68.05a9.11,9.11,0,0,1-.53-2.1c-.08-.75-.19-1.5-.22-2.25a10.49,10.49,0,0,1,.22-2.16,12.45,12.45,0,0,1,4.94-8,11.46,11.46,0,0,1,3.69-1.82,11.83,11.83,0,0,1,4.09-.48,12,12,0,0,1,4.13,1,11.57,11.57,0,0,1,2.32,1.32,12.27,12.27,0,0,1,4,4.82,13.08,13.08,0,0,1,1,3.36,13.42,13.42,0,0,1,.08,3.58,11.88,11.88,0,0,1-.7,2.85,12.5,12.5,0,0,1-1.68,3.14,12.27,12.27,0,0,1-7,4.68A9.27,9.27,0,0,1,249.57,76.26Zm0-23.71c-.61.07-1.22.11-1.82.2a9.94,9.94,0,0,0-3.66,1.32A11,11,0,0,0,240,58.28a10.76,10.76,0,0,0-1.36,4.4,11.37,11.37,0,0,0,2.63,8.41,10.77,10.77,0,0,0,4.1,3,11.2,11.2,0,0,0,4.06.87,10.18,10.18,0,0,0,2.79-.36,10.43,10.43,0,0,0,3.29-1.45,10.87,10.87,0,0,0,3.58-3.89,11.4,11.4,0,0,0,1.4-4.69,11.32,11.32,0,0,0-4.29-9.67A10.87,10.87,0,0,0,249.55,52.55Z" transform="translate(-6.78 -9.79)"/><path class="cls-1" d="M249.55,52.55a10.87,10.87,0,0,1,6.64,2.34,11.32,11.32,0,0,1,4.29,9.67,11.4,11.4,0,0,1-1.4,4.69,10.87,10.87,0,0,1-3.58,3.89,10.43,10.43,0,0,1-3.29,1.45,10.18,10.18,0,0,1-2.79.36,11.2,11.2,0,0,1-4.06-.87,10.77,10.77,0,0,1-4.1-3,11.37,11.37,0,0,1-2.63-8.41,10.76,10.76,0,0,1,1.36-4.4,11,11,0,0,1,4.08-4.21,9.94,9.94,0,0,1,3.66-1.32C248.33,52.66,248.94,52.62,249.55,52.55ZM239.7,63.92a9.24,9.24,0,0,0,.84,3.92A9.35,9.35,0,0,0,241.85,70a9.66,9.66,0,0,0,5.32,3.46,9.4,9.4,0,0,0,2.84.29,9.57,9.57,0,0,0,4.81-1.55,9.83,9.83,0,0,0,3.26-3.49,10.09,10.09,0,0,0,1.3-4.55,10.31,10.31,0,0,0-.7-4.18,9.9,9.9,0,0,0-1.75-2.9,9.71,9.71,0,0,0-3.69-2.68,10,10,0,0,0-3.1-.72,9.59,9.59,0,0,0-5.32,1.21,9.65,9.65,0,0,0-3.22,2.87A10,10,0,0,0,239.7,63.92Z" transform="translate(-6.78 -9.79)"/><path d="M239.7,63.92a10,10,0,0,1,1.9-6.13,9.65,9.65,0,0,1,3.22-2.87,9.59,9.59,0,0,1,5.32-1.21,10,10,0,0,1,3.1.72,9.71,9.71,0,0,1,3.69,2.68,9.9,9.9,0,0,1,1.75,2.9,10.31,10.31,0,0,1,.7,4.18,10.09,10.09,0,0,1-1.3,4.55,9.83,9.83,0,0,1-3.26,3.49A9.57,9.57,0,0,1,250,73.78a9.4,9.4,0,0,1-2.84-.29A9.66,9.66,0,0,1,241.85,70a9.35,9.35,0,0,1-1.31-2.19A9.24,9.24,0,0,1,239.7,63.92Zm9.11-4.72a3.67,3.67,0,1,0,3.71-3.71A3.7,3.7,0,0,0,248.81,59.2Zm8.95,4.85a1.45,1.45,0,0,0-1.43-1.46,1.47,1.47,0,0,0,0,2.94A1.44,1.44,0,0,0,257.76,64.05Z" transform="translate(-6.78 -9.79)"/><path class="cls-1" d="M248.81,59.2A3.67,3.67,0,1,1,252.42,63,3.68,3.68,0,0,1,248.81,59.2Z" transform="translate(-6.78 -9.79)"/><path class="cls-1" d="M257.76,64.05a1.44,1.44,0,0,1-1.44,1.48,1.47,1.47,0,0,1,0-2.94A1.45,1.45,0,0,1,257.76,64.05Z" transform="translate(-6.78 -9.79)"/><path class="cls-2" d="M14.62,67.64V92.2H6.78V25.25H25.17q10.74,0,16.65,5.32t5.9,15a20.81,20.81,0,0,1-6.55,15.85q-6.57,6.19-17.72,6.19Zm0-35.3v28.2h8.22q8.11,0,12.4-3.8T39.51,46q0-6.82-3.92-10.23T23.82,32.34Z" transform="translate(-6.78 -9.79)"/><path class="cls-2" d="M99,92.2H91.33V64.65q0-7.47-2.77-11.2t-8.34-3.74A12.11,12.11,0,0,0,70.79,54,16.12,16.12,0,0,0,67,65.12V92.2H59.3V21.42H67V52.33h.19a19,19,0,0,1,6.67-6.8,17.72,17.72,0,0,1,9-2.26q8.07,0,12.11,4.85t4,14.62Z" transform="translate(-6.78 -9.79)"/><path class="cls-2" d="M133.4,93.32q-10.61,0-16.92-6.7t-6.33-17.77q0-12,6.54-18.77t17.83-6.81q10.69,0,16.69,6.58t6,18.26q0,11.48-6.46,18.35T133.4,93.32Zm.56-6.44q7.42,0,11.42-4.84t4-13.65q0-9-4-13.85T134,49.71q-7.38,0-11.67,5T118,68.57q0,8.5,4.35,13.4A14.75,14.75,0,0,0,134,86.88Z" transform="translate(-6.78 -9.79)"/><path class="cls-2" d="M192.23,91.64a23.2,23.2,0,0,1-3.85,1.19,21.23,21.23,0,0,1-4.27.4q-5.7,0-8.94-3.34T171.92,80V50.93H163.7V44.39h8.22V32.72l7.66-2.48V44.39h12v6.54h-12v28.2c0,2.74.49,4.71,1.47,5.93a5.34,5.34,0,0,0,4.41,1.82,11.05,11.05,0,0,0,2.71-.33,12.06,12.06,0,0,0,2.19-.75Z" transform="translate(-6.78 -9.79)"/><path class="cls-2" d="M356.87,25.25l-24.79,67h-8.64L299.16,25.25h8.73l18.54,53.08a21,21,0,0,1,.79,2.76c.22,1,.4,2,.56,3.17H328a24.67,24.67,0,0,1,.58-2.92c.26-1,.58-2,1-3.1l18.91-53Z" transform="translate(-6.78 -9.79)"/><path class="cls-2" d="M369.38,33a5.37,5.37,0,0,1-3.92-1.56,5.47,5.47,0,0,1,0-7.71,5.71,5.71,0,0,1,7.84,0,5.47,5.47,0,0,1,0,7.71A5.37,5.37,0,0,1,369.38,33Zm3.74,59.25h-7.66V44.39h7.66Z" transform="translate(-6.78 -9.79)"/><path class="cls-2" d="M396.46,86h-.19V92.2h-7.65V21.42h7.65V52.79h.19a19.7,19.7,0,0,1,7-7.14A18.78,18.78,0,0,1,413,43.27q9.19,0,14.4,6.42t5.21,17.2q0,12-5.84,19.22t-16,7.21a18.22,18.22,0,0,1-8.31-1.82A15.83,15.83,0,0,1,396.46,86Zm-.19-20v6.67a14.19,14.19,0,0,0,3.86,10.06,13.72,13.72,0,0,0,20.68-1.19q3.94-5.31,3.94-14.8,0-8-3.68-12.51a12.21,12.21,0,0,0-10-4.53,13.53,13.53,0,0,0-10.73,4.65A17,17,0,0,0,396.27,66Z" transform="translate(-6.78 -9.79)"/><path class="cls-2" d="M483.26,70H449.45q.19,8.08,4.28,12.44t11.46,4.37a22.75,22.75,0,0,0,6.47-1,23.78,23.78,0,0,0,6.42-3.06l3.54,5.47a31.91,31.91,0,0,1-8.12,3.83,31,31,0,0,1-8.92,1.21q-10.83,0-16.9-6.44t-6.12-18q0-11.54,6.1-18.58a20.13,20.13,0,0,1,15.94-7q9.34,0,14.5,6.09t5.16,16.88Zm-7.85-6.25q0-6.63-3.22-10.35a10.87,10.87,0,0,0-8.73-3.71,12.62,12.62,0,0,0-9.27,3.81,17.14,17.14,0,0,0-4.64,10.25Z" transform="translate(-6.78 -9.79)"/></svg>